@startuml domain-model

title Domain Model - US1000

hide empty members
'skinparam Linetype ortho

skinparam class {
    BackgroundColor<<valueObject>> #D6EAF8
    BackgroundColor<<root>> #FDEBD0
    BackgroundColor<<service>> #D1F2EB
    BackgroundColor #FEF9E7
    ArrowColor Black
}
package "<<aggregate>> Candidate" {
    entity Candidate <<entity>> <<root>> {}

    class FirstName <<valueObject>> <<(V, #FF8B40)>> {}
    class LastName <<valueObject>> <<(V, #FF8B40)>> {}
}

' User Aggregate
package "<<aggregate>> User" {
    entity User <<entity>> <<root>> {}

    class Password <<valueObject>> <<(V, #FF8B40)>> {}
    class Role <<valueObject>> <<(V, #FF8B40)>> {}
    class IsActive <<valueObject>> <<(V, #FF8B40)>> {}

    class Authentication <<service>> <<(S, #85C1E9)>> {}

    class Token <<valueObject>> <<(V, #FF8B40)>> {}
    class createdOn <<valueObject>> <<(V, #FF8B40)>> {}
    class PasswordPolicy <<service>> <<(S, #85C1E9)>> {}
    class PasswordEncoder <<service>> <<(S, #85C1E9)>> {}
}
class PhoneNumber <<valueObject>> <<(V, #FF8B40)>> {}
class Email <<valueObject>> <<(V, #FF8B40)>> {}

' User relationships
User "1" --> "1" Email : has
User "1" --> "1" Password : has
User "1" --> "1" Role : has
User "1" --> "1" IsActive : can be
User "1" --> "1" Authentication : authenticated by
' Authentication relationships
Authentication "1" ..> "1" Email : authenticated by
Authentication "1" ..> "1" Password : authenticated by
Authentication "1" ..> "1" Token : generates
Authentication "1" ..> "1" createdOn : generates
Authentication "1" ..> "1" PasswordPolicy : applies
Authentication "1" ..> "1" PasswordEncoder : uses
' Password relationships
Password "1" ..> "1" PasswordPolicy : applies
Password "1" ..> "1" PasswordEncoder : uses
' Candidate relationships
Candidate "1" --> "1" FirstName : has
Candidate "1" --> "1" LastName : has
Candidate "1" --> "1" PhoneNumber : has
Candidate "1" --> "1" Email : has
Candidate "1" ---|> "1" User : has

skinparam package {
    BackgroundColor #EBF5FB
}


@enduml