@startuml class-diagram

title Class Diagram - USG007

hide empty members
'skinparam Linetype ortho

skinparam class {
    BackgroundColor<<value>> #D6EAF8
    BackgroundColor<<root>> #FDEBD0
    BackgroundColor<<service>> #D1F2EB
    BackgroundColor #FEF9E7
    ArrowColor Black
}

skinparam package {
    BackgroundColor #EBF5FB
}

entity SystemUser <<entity>> <<root>> {}
entity UserSession <<entity>> {}
class Email <<value>> <<id>> <<(V, #FF8B40)>> {}
class Password <<value>> <<(V, #FF8B40)>> {}
class Role <<value>> <<(V, #FF8B40)>> {}
class AuthenticationService <<service>> <<(S, #85C1E9)>> {
    + authenticate()
}
class AuthorizationService <<service>> <<(S, #85C1E9)>> {}
class PasswordPolicy <<service>> <<(S, #85C1E9)>> {}
class PasswordEncoder <<service>> <<(S, #85C1E9)>> {}

UserSession --> SystemUser
SystemUser --> Email
SystemUser --> Password
AuthenticationService ..> Role
AuthenticationService ..> Email
AuthenticationService ..> Password
AuthenticationService ..> AuthorizationService
AuthenticationService ..> PasswordPolicy
AuthenticationService ..> PasswordEncoder
AuthorizationService --> UserSession
Password ..> PasswordPolicy
Password ..> PasswordEncoder

@enduml