@startuml DM-US1007

title Domain Model - US1007

hide empty members
'skinparam Linetype ortho

skinparam class {
    BackgroundColor<<valueObject>> #D6EAF8
    BackgroundColor<<root>> #FDEBD0
    BackgroundColor<<service>> #D1F2EB
    BackgroundColor #FEF9E7
    ArrowColor Black
}

skinparam package {
    BackgroundColor #EBF5FB
}

' RecruitmentProcess Aggregate
package "<<aggregate>> RecruitmentProcess" {
    entity RecruitmentProcess <<entity>> <<root>> {}
    entity Phase <<entity>> {}
    entity ApplicationPhase <<entity>> {}
    entity ScreeningPhase <<entity>> {}
    entity InterviewPhase <<entity>> {}
    entity AnalysisPhase <<entity>> {}
    entity ResultPhase <<entity>> {}
    
    class InitialDate <<valueObject>> <<(V, #FF8B40)>> {}
    class FinalDate <<valueObject>> <<(V, #FF8B40)>> {}
    class State <<valueObject>> <<(V, #FF8B40)>> {}

    note right of State: State can be Opened or Closed
}

' Recruitment Process relationships
RecruitmentProcess "1" --> "*" Phase : has

' Phase relationships
Phase "1" --> "1" State: has
Phase "1" --> "1" InitialDate: has
Phase "1" --> "1" FinalDate: has

ApplicationPhase -up-|> Phase: is a
ScreeningPhase -up-|> Phase: is a
InterviewPhase -up-|> Phase: is a
AnalysisPhase -up-|> Phase: is a
ResultPhase -up-|> Phase: is a

@enduml