@startuml domain-model

title Domain Model - US1000

hide empty members
'skinparam Linetype ortho

skinparam class {
    BackgroundColor<<valueObject>> #D6EAF8
    BackgroundColor<<root>> #FDEBD0
    BackgroundColor<<service>> #D1F2EB
    BackgroundColor #FEF9E7
    ArrowColor Black
}
class PhoneNumber <<valueObject>> <<(V, #FF8B40)>> {}
class Email <<valueObject>> <<(V, #FF8B40)>> {}

' Candidate Aggregate
package "<<aggregate>> Candidate" {
    entity Candidate <<entity>> <<root>> {}

    class FirstName <<valueObject>> <<(V, #FF8B40)>> {}
    class LastName <<valueObject>> <<(V, #FF8B40)>> {}
}
' Candidate relationships
Candidate "1" --> "1" FirstName : has
Candidate "1" --> "1" LastName : has
Candidate "1" --> "1" PhoneNumber : has
Candidate "1" --> "1" Email : has
Candidate "1" ---|> "1" User : has

skinparam package {
    BackgroundColor #EBF5FB
}


@enduml